# xmcd
#
# Track frame offsets:
#	150
#	19010
#	38283
#	52728
#	70763
#	86022
#	102738
#	118259
#	137122
#	156043
#	172897
#	188435
#	204436
#	226369
#	244165
#	257445
#	275007
#	288635
#
# Disc length: 4094 seconds
#
# Revision: 1
# Processed by: cddbd v1.5.1PL0 Copyright (c) Steve Scherf et al.
# Submitted via: audiograbber 1.83.01
#
DISCID=f20ffc12
DTITLE=Various Artist - Chart Hits 04-05
DYEAR=2004
DGENRE=Top 40
TTITLE0=Usher - Burn
TTITLE1=Chingy - One Call Away
TTITLE2=Jamelia - Thank You
TTITLE3=J-Kwon - Tipsy
TTITLE4=Maroon 5 - This Love
TTITLE5=Sarah Connor - Bounce
TTITLE6=Mercury 4 - Every Little Step
TTITLE7=Wayne Wonder - Hold Me Now
TTITLE8=Outkast - Roses
TTITLE9=DJ Casper - Cha Cha Slide
TTITLE10=Spiderbait - Black Betty
TTITLE11=David Guetta Feat. Chris Willis - Just A Little More Love
TTITLE12=Basement Jaxx Feat. J C Chasez - Plug It In
TTITLE13=Human Nature - When You Say You Love Me
TTITLE14=Boogie Pimps - Sunny
TTITLE15=Sugarbabes - In The Middle
TTITLE16=Ferry Corsten - Rock Your Body, Rock
TTITLE17=Pink - Last To Know
EXTD=
EXTT0=
EXTT1=
EXTT2=
EXTT3=
EXTT4=
EXTT5=
EXTT6=
EXTT7=
EXTT8=
EXTT9=
EXTT10=
EXTT11=
EXTT12=
EXTT13=
EXTT14=
EXTT15=
EXTT16=
EXTT17=
PLAYORDER=
